# xmcd
#
# Track frame offsets: 
#        150
#        21076
#        49697
#        65261
#
# Disc length: 1220 seconds
#
# Revision: 0
# Processed by: cddbd v1.4PL0 Copyright (c) Steve Scherf et al.
# Submitted via: ExactAudioCopy v0.90b4
#
DISCID=2a04c204
DTITLE=david book and the bluesbutchers - david book and the bluesbutchers
DYEAR=1996
DGENRE=
TTITLE0=poor boy blues
TTITLE1=lovetrain blues
TTITLE2=free
TTITLE3=crossroads
EXTD=
EXTT0=
EXTT1=
EXTT2=
EXTT3=
PLAYORDER=
